# xmcd
#
# Track frame offsets:
#       150
#       14207
#       30010
#       44175
#       60452
#       71955
#       85562
#       100710
#       117420
#       134680
#
# Disc length: 2019 seconds
#
# Revision: 1
# Processed by: cddbd v1.4PL0 Copyright (c) Steve Scherf et al.
# Submitted via: MusiCat 1.1
#
DISCID=8a07e10a
DTITLE=Mississippi John Hurt - The Best of Mississippi John Hurt
DYEAR=1987
DGENRE=
TTITLE0=Here I am, Oh Lord send me
TTITLE1=I shall not be moved
TTITLE2=Nearer to my God to Thee
TTITLE3=Baby what's wrong with you
TTITLE4=It ain't nobody's  bussiness
TTITLE5=Salty Dog Blues
TTITLE6=Coffee Blues
TTITLE7=Avalon, my hometown
TTITLE8=Make me a pallet on the floor
TTITLE9=Since I've laid this burden down
EXTD=1987\n\n\nsubmitted by Stamppot
EXTT0=
EXTT1=
EXTT2=
EXTT3=
EXTT4=
EXTT5=
EXTT6=
EXTT7=
EXTT8=
EXTT9=
PLAYORDER=
